<?xml version="1.0" encoding="UTF-8"?>
<svg id="Layer_1" data-name="Layer 1" xmlns="http://www.w3.org/2000/svg" width="256" height="256" viewBox="0 0 256 256">
  <path d="m127.94,245.01c59.01,0,106.84-47.84,106.84-106.84,0-13.35-2.45-26.12-6.92-37.91l1.17-12.24c7.5,15.11,11.73,32.14,11.73,50.15,0,62.31-50.51,112.83-112.83,112.83S15.1,200.49,15.1,138.17c0-49.87,32.35-92.17,77.2-107.09-.33,2.32-.87,6.31-.91,6.66-41.02,14.93-70.31,54.25-70.31,100.43,0,59.01,47.84,106.84,106.84,106.84h.02Zm-5.32-213.55c1.76-.09,3.54-.12,5.32-.12,18.5,0,35.92,4.7,51.1,12.99.99-1.48,2.3-3.42,3.37-4.98-16.15-8.92-34.72-14-54.47-14-2.87,0-5.72.1-8.54.32l3.21,5.8h.01Z" fill-rule="evenodd" stroke="#000" stroke-miterlimit="10"/>
  <path d="m125.79,185.34c-12.15,1.1-23.13,2.11-31.34.46-27.18-5.48-47.39-26.77-47.39-26.77-.69-.47-.08-1.47.62-1.16,0,0,28.57,14.41,46.77,14.95,18.2.55,24.65-2.57,39.87-12.18,0,0-.47-.55-.77-.47-.63.17-1.41.48-2.39.87-5.26,2.06-16.09,6.31-36.7,3.09-17.76-2.78-34.36-10.88-42.11-15.1-2.9-1.58-4.65-4.61-4.74-7.93l-.15-5.04c0-.23.08-.39.23-.55l10.86-9.05c2.87-2.39,4.9-5.62,5.78-9.25l1.09-4.43c.83-3.36-1.77-6.58-5.23-6.5l-.84.02c-7.3.18-14.51-1.57-20.91-5.08l54.6-.74c2.12-.03,4.16-.8,5.77-2.16l29.13-24.7c6.26-5.32,14.21-8.23,22.42-8.23h14.71c2.44-3.46,5.15-7.62,8.04-12.06.84-1.29,5.51-10.26,6.38-11.59-14.21-7.65-35.39-12.26-52.67-12.26-.81,0-.5,7.94-1.3,7.96,3.37,7.28,6.32,14.95,8.51,21.37h-7.21c-8.53,0-16.83,2.79-23.63,7.95l-13.03,9.88c-.39.31-1.01,0-1.01-.47.34-5-4.92-10.58-4.7-15.75.24-5.56,1.94-21.8,1.94-21.8-37.28,14.78-67.47,57.01-67.47,99.56,0,39.49,24.13,76.71,57.22,93.23,12.74-5.2,22.26-13.14,28.48-18.32,10.03-8.35,19.54-16.27,38.58-20.69,18.37-4.26,33.46-3.97,44.62-2.21-19.18-8.75-42.18-6.65-62.04-4.84h.01Zm106.29-12.51c.79-5.09,4.87-29.76,4.87-35.07,0-7.65-2.08-21.66-3.7-28.82-.51,8.39-6.96,23.99-6.41,32.6.26,4.1,5.09,27.24,5.24,31.29Zm-41.27-113.42c7.17,5.73,13.54,12.41,18.91,19.87-1.63,7.27-3.12,12.64-3.12,12.64l-3.01-3.81c-5.47-6.94-11.84-13.12-18.95-18.37,0,0,2.53-4.71,6.15-10.33h.01Zm-59.75,33.35c-3.42,2.1-5.74,5.74-5.9,10.01-.31,6.9,5.04,12.72,11.95,13.03h.55c6.59,0,12.09-5.19,12.41-11.87.08-1.24-.08-2.4-.31-3.5-5.51-4.66-11.79-6.67-18.7-7.68Zm-37.49.59l32.08-25.68c2.29-1.81.93-2.92.32-2.92-6.29-.05-12.39,2.02-17.35,5.86l-30.81,23.88h12.53c1.18,0,2.33-.4,3.26-1.14h-.01Zm-58.78,32.61v6.17c0,5.92,1.94,11.67,5.51,16.4v-15.36l-5.51-7.21Zm0,0c0-.62-.23-.55,0,0Z" fill-rule="evenodd" stroke="#000" stroke-miterlimit="10"/>
  <path d="m240.76,134.06c-.42-12.37-2.9-24.04-7-35.1v-.1c-1.39-3.72-2.97-7.36-4.73-10.89v.05l-1.17,12.24v.02c-.38,3.63-.77,7.2-1.18,10.67-1.16,9.92-.5,20.26.16,30.56.55,8.51,1.09,17,.6,25.2-.36,6.21-1.33,12.24-3.33,18.02-17.31,35.67-53.86,60.26-96.18,60.26-18.79,0-36.45-4.86-51.79-13.38,12.8-5.51,20.79-12.16,28.48-18.56,10.03-8.35,19.54-16.27,38.58-20.69,5.74-1.33,11.16-2.22,16.25-2.76,11.17-1.18,20.69-.66,28.37.55-8.92-4.07-18.65-5.8-28.53-6.29-11.35-.57-22.88.48-33.51,1.45-12.15,1.12-23.13,2.12-31.35.46-14.47-2.92-26.98-10.32-35.49-16.6-3.51-2.58-6.33-4.98-8.36-6.79-1.97-1.78-3.18-3-3.47-3.3-.02-.02-.03-.03-.05-.05l-.02-.02c-.69-.47-.08-1.47.61-1.16,0,0,.03.02.11.06.07.03.16.08.28.14.66.33,2.12,1.04,4.17,1.97,2.46,1.13,5.76,2.6,9.54,4.12,9.77,3.95,22.75,8.36,32.67,8.65,8.72.26,14.75-.32,20.33-2.05,5.36-1.66,10.33-4.4,16.88-8.46.68-.42,1.38-.87,2.1-1.31h.02c.18-.11.36-.23.55-.35,0,0-.47-.55-.77-.47-.62.17-1.41.48-2.39.87-3.3,1.3-8.78,3.45-17.49,4.08-5.19.38-11.52.22-19.22-.99-17.76-2.78-34.36-10.88-42.11-15.11-2.9-1.58-4.65-4.61-4.74-7.93l-.15-5.04c0-.23.08-.39.23-.55l10.86-9.05c2.87-2.38,4.9-5.63,5.78-9.25l1.09-4.43c.66-2.66-.83-5.24-3.2-6.15-.63-.24-1.31-.36-2.03-.35l-.84.02c-7.3.18-14.51-1.57-20.91-5.08l54.6-.74c2.12-.03,4.16-.8,5.77-2.16l29.13-24.7c6.26-5.32,14.21-8.23,22.42-8.23h14.71c2.44-3.46,5.15-7.62,8.04-12.06,1.89-2.92,3.87-5.96,5.92-9.01.89-1.32,2.02-3,3.02-4.45.11-.17.24-.34.35-.51-1.7-.93-3.42-1.83-5.17-2.69-1.84-.9-3.71-1.74-5.6-2.54-.05-.02-.1-.05-.15-.06-.85-.35-1.71-.71-2.57-1.04-.25-.1-.51-.19-.76-.28-.66-.25-1.33-.5-1.99-.74-.33-.12-.67-.24-1-.35-.59-.2-1.18-.41-1.78-.6-.39-.13-.76-.25-1.15-.38-.55-.17-1.1-.34-1.65-.51-.42-.13-.83-.25-1.25-.38-.52-.15-1.06-.3-1.58-.44-.44-.13-.89-.24-1.33-.36-.51-.14-1.04-.26-1.55-.39-.46-.11-.92-.23-1.38-.34-.5-.11-.99-.22-1.49-.33-.99-.22-1.98-.42-2.97-.6-.41-.08-.81-.16-1.22-.23-.57-.1-1.14-.19-1.71-.28-.42-.07-.84-.14-1.26-.2-.57-.08-1.13-.16-1.7-.24-.43-.06-.87-.11-1.31-.17-.56-.07-1.13-.14-1.68-.19-.46-.05-.91-.09-1.36-.14-.55-.06-1.1-.1-1.65-.15-.48-.03-.97-.07-1.45-.1-.52-.03-1.06-.07-1.59-.1-.55-.03-1.09-.05-1.65-.07-.47-.02-.93-.05-1.41-.06-.89-.02-1.79-.03-2.68-.03h-.39c-.69,0-1.38.02-2.06.03h0c-2.16.02-4.3.12-6.43.27l3.21,5.8c3.55,6.88,6.8,14.63,9.38,21.6.74,1.98,1.41,3.91,2.04,5.73h-7.21c-8.53,0-16.83,2.79-23.63,7.95l-13.03,9.88c-.39.31-1.01,0-1.01-.47.02-.24.03-.49.05-.73v-.06c.09-1.43.18-2.88.25-4.33.02-.38.03-.74.06-1.12.16-3.02.28-6.08.42-9.13.34-7.99.68-15.95,1.46-23.05.05-.35.58-4.33.91-6.66v-.02c-2.06.68-4.11,1.42-6.12,2.22v.06C44.6,49.9,15.17,90.56,15.17,138.12c0,38.09,18.88,71.77,47.79,92.2l6.1,4.02c17.15,10.52,37.33,16.6,58.93,16.6,57.96,0,105.71-43.72,112.09-99.97.07-.3.14-.6.2-.91.4-3.88.62-7.82.62-11.81,0-1.42-.03-2.84-.09-4.25l-.05.06Zm-132.15-63.44c3.13-2.43,6.73-4.15,10.53-5.07.69-.17,1.39-.31,2.1-.42.72-.11,1.43-.21,2.16-.26h.03c.84-.07,1.69-.1,2.54-.09.59,0,1.84,1,0,2.65,0,0-.01.01-.02.02-.09.08-.18.16-.3.25l-32.08,25.68c-.92.74-2.07,1.14-3.26,1.14h-12.53l30.81-23.88v-.02Zm-68.31,77.91c-2.85-3.76-4.66-8.19-5.27-12.82-.11-.84-.18-1.69-.22-2.53-.01-.34-.02-.69-.02-1.04v-6.17l5.51,7.21v15.36h0Zm5.73,2.79c.25.26.52.52.8.77-.27.02-.54.07-.8.14v-.9h0Z" stroke="#000" stroke-miterlimit="10"/>
  <path d="m203.6,88.1l3.01,3.82s.76-2.76,1.79-6.98c3.28-13.43,9.28-41.71,2.32-43.9-9.14-2.87-26.07,28.7-26.07,28.7,6.49,4.79,12.37,10.36,17.5,16.58.49.59.97,1.18,1.45,1.79Z" stroke="#000" stroke-miterlimit="10"/>
  <path d="m233.27,23.1c-1.84-6.83-5.11-13.72-11.49-16.58-5.72-2.55-11.46-1.64-16.49.83-4.9,2.4-9.51,6.43-13.71,10.95-8.36,8.98-16.42,21.37-23.1,31.65l-.16.25c-2.24,3.45-4.33,6.64-6.24,9.46h-11.71c-3.26,0-6.47.4-9.59,1.15l-1.32-3.87c-3.31-9.75-8.42-22.51-14.18-32.6-2.86-5-6.07-9.69-9.53-13.02-3.27-3.14-8.13-6.32-13.82-4.9-4.77,1.2-8.07,4.43-10.31,8.21-2.19,3.69-3.56,8.24-4.51,12.99-1.88,9.38-2.39,21.23-2.87,32.57v.34c-.24,5.19-.46,10.32-.8,15.22v.39c-.01,2.22,1.08,3.86,2.35,4.89l-18.13,14.05,31.16,3.22,29.13-24.7c6.26-5.32,14.21-8.23,22.42-8.23h14.71c2.44-3.46,5.15-7.62,8.04-12.06,13.57-20.86,31.4-48.25,46.32-41.58,15.44,6.9,11.9,59.6,7.23,99.21l5.68.67c2.33-19.86,4.43-43.26,3.96-62.68-.24-9.67-1.12-18.68-3.05-25.85Zm-107.3,44.31l-.02.02c-.09.08-.18.16-.3.25l-32.08,25.68c-.92.74-2.07,1.14-3.26,1.14h-12.53l30.81-23.88c3.13-2.43,6.73-4.15,10.53-5.07.69-.17,1.39-.31,2.1-.42.72-.11,1.44-.2,2.16-.26h.03c.84-.07,1.69-.1,2.54-.09.59,0,1.84,1,0,2.65v-.02Zm.87-8.61c-8.53,0-16.83,2.79-23.63,7.95l-13.03,9.88c-.39.31-1.01,0-1.01-.47.02-.24.03-.49.05-.73v-.06c.09-1.43.18-2.88.25-4.33.02-.38.05-.74.06-1.12.16-3.02.28-6.08.42-9.13.99-23.17,1.97-45.95,13.37-48.8,9.83-2.46,21.69,22.17,28.68,41.07.74,1.98,1.41,3.91,2.04,5.73h-7.21.01Z" stroke="#000" stroke-miterlimit="10"/>
</svg>