<?xml version="1.0" encoding="UTF-8"?>
<svg id="uuid-f9f8eb85-9671-46f3-b266-564b4cb8a518" data-name="Layer 2" xmlns="http://www.w3.org/2000/svg" width="716" height="716.08" viewBox="0 0 716 716.08">
  <path d="m205.67,436.44L8,231.93v289.2c0,7.95,3.05,15.58,8.49,21.21l151.7,156.95c5.44,5.62,12.81,8.78,20.5,8.78h279.61l-160.6-166.06-102.04-105.57Z" fill="#578fca" stroke="#fada7a" stroke-miterlimit="10" stroke-width="16"/>
  <path d="m468.3,708.07h172.06c2.29,0,4.55-.12,6.78-.35l-137.27-142.66s-13.8-15.23-26.48-20.98c-2.85-1.29-5.64-2.11-8.21-2.17-14.05-.3-118.63-.04-167.48.1l160.6,166.06Z" fill="#3674b5" stroke="#fada7a" stroke-miterlimit="10" stroke-width="16"/>
  <path d="m241.43,164.68c16.35.31,140.36.03,194.29-.11l74.15,76.72v323.77l137.27,142.66c34.17-3.52,60.86-33.35,60.86-69.63V190.06c0-7.95-3.05-15.58-8.49-21.21L552.6,16.86c-5.44-5.62-12.81-8.78-20.5-8.78H75.64c-1.39,0-2.76.06-4.13.14l134.16,138.81s22.47,17.41,35.76,17.66Z" fill="#f5f0cd" stroke="#fada7a" stroke-miterlimit="10" stroke-width="16"/>
  <path d="m205.67,436.44V147.02L71.51,8.21c-7.02.44-13.74,1.98-20.02,4.47C26.06,22.74,8,48.21,8,78.05v153.88l197.67,204.51Z" fill="#3674b5" stroke="#fada7a" stroke-miterlimit="10" stroke-width="16"/>
</svg>