<?xml version="1.0" encoding="utf-8"?>
<!-- Generator: Adobe Illustrator 27.8.1, SVG Export Plug-In . SVG Version: 6.00 Build 0)  -->
<svg version="1.1" id="uuid-f9f8eb85-9671-46f3-b266-564b4cb8a518"
	 xmlns="http://www.w3.org/2000/svg" xmlns:xlink="http://www.w3.org/1999/xlink" x="0px" y="0px" viewBox="0 0 716 716.1"
	 style="enable-background:new 0 0 716 716.1;" xml:space="preserve">
<style type="text/css">
	.st0{fill:#578FCA;stroke:#1B1C3A;stroke-width:16;stroke-miterlimit:10;}
	.st1{fill:#3674B5;stroke:#1B1C3A;stroke-width:16;stroke-miterlimit:10;}
	.st2{fill:#F5F0CD;stroke:#1B1C3A;stroke-width:16;stroke-miterlimit:10;}
</style>
<path class="st0" d="M205.7,436.4L8,231.9v289.2c0,8,3.1,15.6,8.5,21.2l151.7,157c5.4,5.6,12.8,8.8,20.5,8.8h279.6L307.7,542
	L205.7,436.4L205.7,436.4z"/>
<path class="st1" d="M468.3,708.1h172.1c2.3,0,4.5-0.1,6.8-0.3L509.9,565.1c0,0-13.8-15.2-26.5-21c-2.9-1.3-5.6-2.1-8.2-2.2
	c-14-0.3-118.6,0-167.5,0.1L468.3,708.1L468.3,708.1z"/>
<path class="st2" d="M241.4,164.7c16.4,0.3,140.4,0,194.3-0.1l74.1,76.7v323.8l137.3,142.7c34.2-3.5,60.9-33.3,60.9-69.6v-448
	c0-7.9-3-15.6-8.5-21.2L552.6,17c-5.4-5.6-12.8-8.8-20.5-8.8H75.6c-1.4,0-2.8,0.1-4.1,0.1L205.7,147
	C205.7,147,228.1,164.4,241.4,164.7L241.4,164.7z"/>
<path class="st1" d="M205.7,436.4V147L71.5,8.2c-7,0.4-13.7,2-20,4.5C26.1,22.7,8,48.2,8,78.1V232L205.7,436.4z"/>
</svg>
